# Blender v2.77 (sub 0) OBJ File: 'untitled.blend'
# www.blender.org
o Cube
v 1.000000 -20.146532 -1.000000
v 1.000000 -20.146532 1.000000
v -1.000000 -20.146532 1.000000
v -1.000000 -20.146532 -1.000000
v 1.000000 -0.096224 -0.999999
v 0.999999 -0.096224 1.000001
v -1.000000 -0.096224 1.000000
v -1.000000 -0.096224 -1.000000
v 0.899999 0.003776 0.900001
v 0.999999 -0.096224 1.000001
v -1.000000 -0.096224 1.000000
v -0.900000 0.003776 0.900000
v 1.000000 -0.096224 -0.999999
v 0.900000 0.003776 -0.899999
v -0.900000 0.003776 -0.900000
v -1.000000 -0.096224 -1.000000
vn 0.0000 -1.0000 0.0000
vn -1.0000 -0.0000 -0.0000
vn 0.0000 1.0000 0.0000
vn -0.7071 0.7071 -0.0000
vn 1.0000 0.0000 0.0000
vn -0.0000 -0.0000 1.0000
vn -0.0000 0.7071 0.7071
vn 0.7071 0.7071 0.0000
vn 0.0000 0.7071 -0.7071
vn 0.0000 0.0000 -1.0000
s off
f 1//1 2//1 3//1 4//1
f 3//2 7//2 8//2 4//2
f 14//3 15//3 12//3 9//3
f 11//4 12//4 15//4 16//4 8//4 7//4
f 1//5 5//5 6//5 2//5
f 2//6 6//6 10//6 11//6 7//6 3//6
f 9//7 12//7 11//7 10//7
f 13//8 14//8 9//8 10//8 6//8 5//8
f 13//9 16//9 15//9 14//9
f 13//10 5//10 1//10 4//10 8//10 16//10
 